PathFileType	4	(X/Y/Z)	pose2sim_0-707.trc
DataRate	CameraRate	NumFrames	NumMarkers	Units	OrigDataRate	OrigDataStartFrame	OrigNumFrames
50	50	6	22	m	50	88	708
Frame#	Time	Hip			RHip			RKnee			RAnkle			RBigToe			RSmallToe			RHeel			LHip			LKnee			LAnkle			LBigToe			LSmallToe			LHeel			Neck			Head			Nose			RShoulder			RElbow			RWrist			LShoulder			LElbow			LWrist			
		X1	Y1	Z1	X2	Y2	Z2	X3	Y3	Z3	X4	Y4	Z4	X5	Y5	Z5	X6	Y6	Z6	X7	Y7	Z7	X8	Y8	Z8	X9	Y9	Z9	X10	Y10	Z10	X11	Y11	Z11	X12	Y12	Z12	X13	Y13	Z13	X14	Y14	Z14	X15	Y15	Z15	X16	Y16	Z16	X17	Y17	Z17	X18	Y18	Z18	X19	Y19	Z19	X20	Y20	Z20	X21	Y21	Z21	X22	Y22	Z22	
88	1.76	0.11040715835709161	0.9129623664137549	-0.1227058464368469	9.915162528311391e-05	0.8999933100269502	-0.11893686174840733	-0.025840838351694304	0.4977206809961745	-0.14067770565709778	-0.019455884806814247	0.09400338927093378	-0.15789068042448673	-0.02681572787616932	0.04543680720992352	0.04231753882690852	-0.06977422819052727	0.04522166435574008	-0.01094322110226173	-0.006386435655370987	0.045251876868067635	-0.19772181955734366	0.22108839420340182	0.8971385713057884	-0.12317188821143149	0.2413411280139645	0.5004187339181817	-0.15064497492096113	0.26218847749092666	0.09769017092153943	-0.16490804863700737	0.27180230752876633	0.04730980989680847	0.025831074621058586	0.3152692487597844	0.045837180306420165	-0.02472679575914008	0.25295005987652736	0.05220865584867565	-0.1975297345554226	0.12055441952846456	1.5237277522183952	-0.12637349723429514	0.11529004082518207	1.751249838112835	-0.09702202350429326	0.10717243726544107	1.631543732759612	0.015270624322716	-0.05643106010897258	1.422803694477341	-0.1284983783360407	-0.14040582016017525	1.1528845614845338	-0.0654089305043458	-0.09610825207456536	1.2428418907953374	0.2064359921298367	0.299670270697844	1.4145138887219348	-0.13825659523953632	0.352516668975257	1.1504119628881464	-0.0626815409416728	0.319957059283387	1.2280814021295263	0.20539550177825364
89	1.78	0.11027591119399763	0.910539411136575	-0.1224912401274519	0.0010046973395495475	0.8967811718263962	-0.12549434178276492	-0.02555843717977608	0.49701078233739837	-0.14255250965249427	-0.016112882756326972	0.09718962375371683	-0.14850724032262008	-0.022907101962909134	0.043646293639482726	0.026044438891297997	-0.07068149408768497	0.04086408089762045	-0.030234251903830164	-0.0029415157566245616	0.05361245004402249	-0.1905685074681656	0.2227825007472474	0.8956161026266347	-0.12675387973767338	0.24321282604538794	0.49784984558717893	-0.14927130582068676	0.2607038130493965	0.09910561789257094	-0.16421650948067007	0.27671059285452804	0.04420089729806074	0.039482660205376795	0.3206971189613613	0.044700488408991816	-0.01650430155000441	0.25240787627455563	0.052580754089092824	-0.20844718748254873	0.12146463540060216	1.5210372780141175	-0.12348935730164677	0.11844376896906846	1.7544793038116726	-0.0996725814458183	0.10873965602368531	1.6295767772490166	0.006242344189194334	-0.05040298949157172	1.4257929701938226	-0.13632448791501123	-0.13970330687245974	1.1636282659718031	-0.06011165948806986	-0.09520109634064816	1.2575224091106105	0.1870158885487741	0.29730733238680096	1.4159717856700513	-0.13496567756319305	0.35198723163711737	1.1660325928756807	-0.07052361688554215	0.32066149007689265	1.2501653591015525	0.20085575747838433
90	1.8	0.1103745162177141	0.9069720738346297	-0.11905462152527849	0.0009855839043454288	0.8921462488030205	-0.12379824740440486	-0.02562549271625361	0.49239466381643304	-0.14216676679973192	-0.016776916530257292	0.09667952563571341	-0.15134715373442167	-0.024182442015749307	0.042803362690390305	0.032979639952581734	-0.07039996879522298	0.043009738524183015	-0.025597844492921733	-0.0047181609148853184	0.05178087013484238	-0.1943008711648815	0.22341938717547866	0.8912117418873603	-0.12559502397118974	0.24228227957662576	0.4945465459567341	-0.14864242897341395	0.26114356261658583	0.09698145669922616	-0.16503316148985037	0.2795709784635506	0.04473306731498927	0.033868049137604626	0.3229136695530427	0.04687280661000573	-0.016918626662073617	0.2512408671365797	0.051902129485105	-0.20070805505806324	0.11988340351492188	1.519753414001113	-0.12376730705290394	0.11978113468251254	1.7537507782881747	-0.0941839657551621	0.10712597132913979	1.629062304463493	0.005223547609464539	-0.04985484139101685	1.424426966049309	-0.1378972962769797	-0.13827614089202808	1.1678486743035834	-0.05479971162362605	-0.08901247845298718	1.2827311112742317	0.20218138113257758	0.2977725280970096	1.4143854569678058	-0.1381858143803557	0.35254772942454476	1.1692608525815917	-0.060801437283043505	0.3135995293695025	1.26999626342795	0.23611598487395694
91	1.82	0.10821611842264635	0.9083879464559389	-0.12226655261778495	0.0004679467308964506	0.8962182344417072	-0.1237937991587297	-0.026121153359630032	0.49392902775638253	-0.14317191075234437	-0.01883746358327558	0.09574929214755125	-0.15195117100861852	-0.02146317557749164	0.042986370240762385	0.03197904641063617	-0.06637771482668936	0.04022244458258698	-0.024173805433026274	-0.005367788290426269	0.05226927915125463	-0.19412900492035823	0.2226272646077091	0.8942191272622761	-0.1314802114546937	0.24453266840851962	0.4990358014909918	-0.15032288134288543	0.26012255100627335	0.09600582132117226	-0.16068106710232205	0.2784990493241193	0.042516559285255655	0.03658587514510196	0.322124314149895	0.044214663398903946	-0.018270333625115532	0.2514254808764508	0.049459925426944405	-0.19995354381625557	0.1207800670704206	1.5209116362608812	-0.11898764858341652	0.11766544421426707	1.7520767926603564	-0.09504036758032433	0.10462306055444372	1.6302296645954442	0.002487531801007083	-0.05146489157535975	1.4268609327921016	-0.13347573354181458	-0.13773048807919944	1.1684790598900157	-0.05483121516551091	-0.08582556490709145	1.2898546901056789	0.19431183043181263	0.29702877262759164	1.4153669667698925	-0.14313995878521885	0.35143946075353644	1.1696332900561004	-0.05251289281131398	0.31808721332271417	1.2852962198641025	0.23175642797763515
92	1.84	0.1091157806641873	0.9125702620176012	-0.11644552967009135	0.0004112515687063531	0.9004062774884312	-0.11128194599071117	-0.02469370545725148	0.4971585415662116	-0.1391175431618579	-0.018633106081846842	0.09431531506713448	-0.16141497787907783	-0.025562162385710754	0.04922610914060695	0.04923224681182254	-0.07035094716595706	0.04651665834568205	-0.008499734850756547	-0.010380122944620897	0.04536875931375785	-0.19755233506117256	0.22250630524170484	0.8974588646495727	-0.11744828506526762	0.24410063734942328	0.49699879457562557	-0.14306407011201303	0.25848770972164226	0.09681206980988134	-0.16382864922540197	0.26718678404766216	0.045117404125540155	0.03738642309549997	0.3089959650339905	0.04375016645515486	-0.010360341900686592	0.25311572280480105	0.050387028500283	-0.1969269640119987	0.12025523852085082	1.5225763461612645	-0.12775534618671724	0.11877599098792137	1.7518456437424592	-0.09654268095419066	0.10876352350543725	1.6303060652799786	0.018571465968239814	-0.05495646441983554	1.4258227424540102	-0.1282595651437871	-0.13902570922576477	1.1588652733358966	-0.052718717545891795	-0.08561863144561795	1.3030011385485285	0.1871532006980478	0.2963032687269804	1.4161933338637887	-0.1425434163203135	0.3453496562518877	1.1606490561800498	-0.04534293450753979	0.31893748913310277	1.2978018103050073	0.21812719025019278
93	1.86	0.10937748014970472	0.9093554260242923	-0.12413533626287687	0.0029910710728490485	0.8955477627153329	-0.12102501498782349	-0.025163294221027956	0.49482687011807136	-0.14066466679584114	-0.01909045310745373	0.09665957883034032	-0.15117359878284192	-0.024248948868943406	0.04168031774056331	0.0366210511709222	-0.07116605331236334	0.04014203878254848	-0.022900324178489712	-0.003867245167531125	0.051885743140179214	-0.18983825562731085	0.2239382319177956	0.8959748004247393	-0.1270239463262726	0.24146386383850826	0.498337450976418	-0.14071006412643006	0.2587736359124533	0.09726338991703619	-0.16217590424566705	0.27674485149253986	0.04348627187282285	0.03808854324111831	0.31933106897844915	0.04252912375783474	-0.010296992918393779	0.25048580212900157	0.05079473515741074	-0.2067050092340298	0.12080745599648209	1.5217937384715032	-0.11915724334434011	0.12047706035685135	1.7527222514379424	-0.08889695772187137	0.10750050733283628	1.6266226578086296	0.010305667015660182	-0.050121737919514166	1.428595547987573	-0.13516527419938326	-0.13618683512882618	1.1692391160250624	-0.05091958316682189	-0.0798947279851848	1.3075344679235255	0.18315212951884752	0.2942050240043613	1.417155106641428	-0.14398248781256062	0.345770558644936	1.1721567315336705	-0.0503157401143591	0.31261517582509285	1.3124092037150172	0.21587800489908757
